<?xml version="1.0" encoding="UTF-8" standalone="no"?>
<svg
   xmlns:dc="http://purl.org/dc/elements/1.1/"
   xmlns:cc="http://creativecommons.org/ns#"
   xmlns:rdf="http://www.w3.org/1999/02/22-rdf-syntax-ns#"
   xmlns:svg="http://www.w3.org/2000/svg"
   xmlns="http://www.w3.org/2000/svg"
   xmlns:sodipodi="http://sodipodi.sourceforge.net/DTD/sodipodi-0.dtd"
   xmlns:inkscape="http://www.inkscape.org/namespaces/inkscape"
   version="1.1"
   id="Capa_1"
   x="0px"
   y="0px"
   viewBox="0 0 512 512"
   style="enable-background:new 0 0 512 512;"
   xml:space="preserve"
   sodipodi:docname="save.svg"
   inkscape:version="1.0 (4035a4fb49, 2020-05-01)"><metadata
   id="metadata243"><rdf:RDF><cc:Work
       rdf:about=""><dc:format>image/svg+xml</dc:format><dc:type
         rdf:resource="http://purl.org/dc/dcmitype/StillImage" /><dc:title /></cc:Work></rdf:RDF></metadata><defs
   id="defs241" /><sodipodi:namedview
   inkscape:document-rotation="0"
   pagecolor="#ffffff"
   bordercolor="#666666"
   borderopacity="1"
   objecttolerance="10"
   gridtolerance="10"
   guidetolerance="10"
   inkscape:pageopacity="0"
   inkscape:pageshadow="2"
   inkscape:window-width="1920"
   inkscape:window-height="1001"
   id="namedview239"
   showgrid="false"
   inkscape:pagecheckerboard="true"
   inkscape:zoom="1.6210938"
   inkscape:cx="137.25302"
   inkscape:cy="278.20723"
   inkscape:window-x="1119"
   inkscape:window-y="1346"
   inkscape:window-maximized="1"
   inkscape:current-layer="Capa_1" />
<g
   id="g182">
	<g
   id="g180">
		<path
   d="M346,422H166c-8.284,0-15,6.716-15,15s6.716,15,15,15h180c8.284,0,15-6.716,15-15S354.284,422,346,422z"
   id="path178" />
	</g>
</g>
<g
   id="g188">
	<g
   id="g186">
		<path
   d="M346,302H166c-8.284,0-15,6.716-15,15s6.716,15,15,15h180c8.284,0,15-6.716,15-15S354.284,302,346,302z"
   id="path184" />
	</g>
</g>
<g
   id="g194">
	<g
   id="g192">
		<path
   d="M346,362H166c-8.284,0-15,6.716-15,15s6.716,15,15,15h180c8.284,0,15-6.716,15-15S354.284,362,346,362z"
   id="path190" />
	</g>
</g>
<g
   id="g200">
	<g
   id="g198">
		<rect
   x="121"
   width="210"
   height="130"
   id="rect196" />
	</g>
</g>
<g
   id="g206">
	<g
   id="g204">
		<path
   d="M507.606,84.394l-80-80C424.793,1.581,420.978,0,417,0h-56v145c0,8.284-6.716,15-15,15H106c-8.284,0-15-6.716-15-15V0H15    C6.716,0,0,6.716,0,15v482c0,8.284,6.716,15,15,15c4.645,0,475.762,0,482,0c8.284,0,15-6.716,15-15V95    C512,91.022,510.419,87.207,507.606,84.394z M391,482H121V272h270V482z"
   id="path202" />
	</g>
</g>
<g
   id="g208">
</g>
<g
   id="g210">
</g>
<g
   id="g212">
</g>
<g
   id="g214">
</g>
<g
   id="g216">
</g>
<g
   id="g218">
</g>
<g
   id="g220">
</g>
<g
   id="g222">
</g>
<g
   id="g224">
</g>
<g
   id="g226">
</g>
<g
   id="g228">
</g>
<g
   id="g230">
</g>
<g
   id="g232">
</g>
<g
   id="g234">
</g>
<g
   id="g236">
</g>
<path
   style="fill:#c0c0c0;fill-opacity:1"
   d="m 12.538695,511.35809 c -1.416007,-0.28127 -3.3800008,-0.92791 -4.3644306,-1.43698 -2.5504293,-1.31888 -6.0303063,-5.37014 -7.0202968,-8.17301 -1.26508758,-3.58173 -1.26508758,-487.914473 0,-491.496199 C 2.304392,6.9948089 5.8966695,3.1562316 9.253012,1.5975556 11.963295,0.33890791 12.958317,0.30418105 51.344554,0.12853575 l 39.315638,-0.17989801 0.163883,74.82086326 0.163877,74.820859 1.710141,2.90922 c 0.940575,1.60007 2.662999,3.636 3.827608,4.52429 4.652539,3.54866 -2.553277,3.36167 129.542309,3.36167 135.54258,0 125.84972,0.3136 130.38162,-4.2183 1.26485,-1.26485 2.84569,-3.40087 3.51299,-4.74673 1.1834,-2.38674 1.21738,-4.28294 1.37956,-76.971595 l 0.16628,-74.52457686 29.44336,0.19204779 29.44336,0.1920478 3.12897,1.73477807 c 4.28235,2.3742483 84.63314,82.7865212 86.71934,86.7857042 l 1.44808,2.775903 V 295.47952 c 0,171.09818 -0.13594,204.25955 -0.84554,206.26858 -1.15042,3.25709 -4.7427,7.09567 -8.09904,8.65434 l -2.77591,1.28913 -242.42891,0.089 C 124.20627,511.82947 13.954702,511.6394 12.538695,511.35813 Z M 391.09398,376.90602 V 271.42169 H 256 120.90602 V 376.90602 482.39036 H 256 391.09398 Z"
   id="path245" /><path
   style="fill:#c0c0c0;fill-opacity:1"
   d="M 121.52289,64.771084 V 0 H 226.08193 330.64096 V 64.771084 129.54217 H 226.08193 121.52289 Z"
   id="path247" /><path
   style="fill:#ffffff;stroke-width:0.616867"
   d="m 161.4158,330.8734 c -6.76455,-2.07829 -11.24625,-9.76086 -9.70686,-16.63958 0.93374,-4.17241 3.54161,-7.73545 7.26264,-9.92269 l 2.95613,-1.73764 H 256 350.07229 l 2.7471,1.54217 c 1.5109,0.8482 3.64089,2.71553 4.7333,4.14964 4.50513,5.91429 3.97617,13.72746 -1.28559,18.98922 -4.95605,4.95605 2.30222,4.62559 -100.53328,4.57721 -78.91459,-0.0371 -91.7439,-0.16747 -94.31802,-0.95833 z"
   id="path249" /><path
   style="fill:#ffffff;stroke-width:0.616867"
   d="m 161.47066,390.83719 c -3.38055,-1.21255 -5.20627,-2.56639 -7.23199,-5.36282 -4.26819,-5.89206 -3.66947,-13.58929 1.45568,-18.71444 1.45713,-1.45713 3.73332,-3.03204 5.05821,-3.49981 3.51102,-1.2396 186.89984,-1.27041 190.39796,-0.032 3.65578,1.29424 7.67992,5.75273 8.86182,9.81833 0.84468,2.90561 0.88682,3.97835 0.26534,6.75539 -0.91687,4.09701 -3.82469,8.01855 -7.45829,10.05838 l -2.7471,1.54217 -93.14699,0.13125 c -76.61088,0.10794 -93.55666,-0.0157 -95.45464,-0.69647 z"
   id="path251" /><path
   style="fill:#ffffff;stroke-width:0.616867"
   d="m 161.28632,450.89046 c -1.03132,-0.2999 -3.05343,-1.55385 -4.49357,-2.78655 -6.89763,-5.90412 -7.17131,-15.38809 -0.62512,-21.66301 4.35547,-4.17498 -3.04963,-3.88668 99.83237,-3.88668 102.882,0 95.4769,-0.2883 99.83237,3.88668 4.69792,4.50325 6.07284,11.50794 3.31062,16.86631 -1.63286,3.16754 -5.80185,6.81073 -8.72195,7.62193 -2.79307,0.7759 -186.4626,0.73834 -189.13472,-0.0387 z"
   id="path253" /><path
   id="path1156"
   d="m 163.77832,330.8556 c -3.63216,-0.59256 -4.48057,-0.98116 -6.89993,-3.16041 -4.61016,-4.15262 -6.18271,-10.48917 -3.93699,-15.86395 1.27505,-3.05162 2.95987,-4.91835 6.4854,-7.18563 l 2.74245,-1.76368 h 93.97322 c 104.21044,0 94.65436,-0.38141 99.38146,3.96651 5.87528,5.40401 6.1073,14.13876 0.53155,20.01066 -4.19995,4.42302 3.86724,4.0816 -98.51331,4.1692 -50.72193,0.0434 -92.91566,-0.0343 -93.76385,-0.1727 z"
   style="fill:#c0c0c0;stroke-width:0.616867;fill-opacity:1" /><path
   id="path1158"
   d="m 161.1158,390.20025 c -5.45269,-1.94467 -9.16765,-7.28184 -9.21859,-13.24403 -0.0447,-5.23288 2.49673,-9.37027 7.84431,-12.77034 1.76403,-1.1216 4.90087,-1.15938 96.27633,-1.15938 h 94.4529 l 2.58142,1.70828 c 3.29376,2.17968 5.9234,5.81218 6.83854,9.44656 1.3435,5.33552 -1.79999,11.86629 -7.41903,15.41344 l -2.37488,1.49919 -93.31346,-0.0271 c -77.09444,-0.0224 -93.72263,-0.17301 -95.66754,-0.86665 z"
   style="fill:#c0c0c0;fill-opacity:1;stroke-width:0.616867" /><path
   id="path1160"
   d="m 160.38555,449.96674 c -5.17152,-2.689 -8.32772,-7.64368 -8.32772,-13.07307 0,-2.96289 0.35428,-4.18993 2.00482,-6.94366 2.85628,-4.76537 4.91179,-5.94654 11.42238,-6.56375 7.02934,-0.66638 174.0006,-0.66638 181.02994,0 6.38968,0.60575 8.49507,1.77088 11.24896,6.22519 1.66004,2.68504 1.8698,3.55965 1.8698,7.79617 0,4.4038 -0.14563,4.95177 -1.88819,7.10476 -1.03851,1.2831 -2.93798,3.18261 -4.22105,4.22111 l -2.33285,1.88819 -94.47775,0.15366 c -84.58541,0.13756 -94.67151,0.0529 -96.32834,-0.8086 z"
   style="fill:#c0c0c0;fill-opacity:1;stroke-width:0.616867" /></svg>
