<?xml version="1.0" encoding="UTF-8" standalone="no"?>
<svg
   xmlns:dc="http://purl.org/dc/elements/1.1/"
   xmlns:cc="http://creativecommons.org/ns#"
   xmlns:rdf="http://www.w3.org/1999/02/22-rdf-syntax-ns#"
   xmlns:svg="http://www.w3.org/2000/svg"
   xmlns="http://www.w3.org/2000/svg"
   xmlns:sodipodi="http://sodipodi.sourceforge.net/DTD/sodipodi-0.dtd"
   xmlns:inkscape="http://www.inkscape.org/namespaces/inkscape"
   inkscape:version="1.0 (4035a4fb49, 2020-05-01)"
   sodipodi:docname="video.svg"
   xml:space="preserve"
   style="enable-background:new 0 0 477.867 477.867;"
   viewBox="0 0 477.867 477.867"
   y="0px"
   x="0px"
   id="Capa_1"
   version="1.1"><metadata
   id="metadata43"><rdf:RDF><cc:Work
       rdf:about=""><dc:format>image/svg+xml</dc:format><dc:type
         rdf:resource="http://purl.org/dc/dcmitype/StillImage" /><dc:title></dc:title></cc:Work></rdf:RDF></metadata><defs
   id="defs41" /><sodipodi:namedview
   inkscape:current-layer="Capa_1"
   inkscape:window-maximized="1"
   inkscape:window-y="1346"
   inkscape:window-x="1119"
   inkscape:cy="237.78202"
   inkscape:cx="238.9335"
   inkscape:zoom="1.7368849"
   inkscape:pagecheckerboard="true"
   showgrid="false"
   id="namedview39"
   inkscape:window-height="1001"
   inkscape:window-width="1920"
   inkscape:pageshadow="2"
   inkscape:pageopacity="0"
   guidetolerance="10"
   gridtolerance="10"
   objecttolerance="10"
   borderopacity="1"
   bordercolor="#666666"
   pagecolor="#ffffff" />
<g
   id="g6">
	<g
   id="g4">
		<path
   id="path2"
   d="M238.933,0C106.974,0,0,106.974,0,238.933s106.974,238.933,238.933,238.933s238.933-106.974,238.933-238.933    C477.726,107.033,370.834,0.141,238.933,0z M339.557,246.546c-1.654,3.318-4.343,6.008-7.662,7.662v0.085L195.362,322.56    c-8.432,4.213-18.682,0.794-22.896-7.638c-1.198-2.397-1.815-5.043-1.8-7.722V170.667c-0.004-9.426,7.633-17.07,17.059-17.075    c2.651-0.001,5.266,0.615,7.637,1.8l136.533,68.267C340.331,227.863,343.762,238.11,339.557,246.546z" />
	</g>
</g>
<g
   id="g8">
</g>
<g
   id="g10">
</g>
<g
   id="g12">
</g>
<g
   id="g14">
</g>
<g
   id="g16">
</g>
<g
   id="g18">
</g>
<g
   id="g20">
</g>
<g
   id="g22">
</g>
<g
   id="g24">
</g>
<g
   id="g26">
</g>
<g
   id="g28">
</g>
<g
   id="g30">
</g>
<g
   id="g32">
</g>
<g
   id="g34">
</g>
<g
   id="g36">
</g>
<path
   d="M 238.83984 0.43359375 C 224.15248 0.43258796 209.49231 1.7387395 195.33594 4.3515625 C 98.85188 22.159505 22.011575 98.953215 4.3925781 195.17773 C -8.209999 264.00553 9.1875661 333.40616 52.742188 388.05078 C 60.697778 398.03204 79.818922 417.15511 89.816406 425.12891 C 129.55993 456.82756 178.27406 475.19921 227.99414 477.23828 C 233.53567 477.46548 239.62348 477.57598 241.52344 477.48438 C 243.42339 477.39274 248.4792 477.18704 252.75781 477.02734 C 275.88965 476.16393 302.42031 470.33229 326.64844 460.78516 C 402.52383 430.88633 458.82365 362.59627 473.47656 282.68945 C 476.60656 265.62054 477.00391 260.73604 477.00391 239.2207 C 477.00391 217.72697 476.53602 211.83739 473.52148 195.41406 C 467.49457 162.57917 453.09371 128.61676 433.50586 101.04297 C 418.61964 80.08766 397.368 58.92994 375.98242 43.771484 C 348.95383 24.613171 315.07832 10.330244 282.50195 4.3574219 C 268.24074 1.7426521 253.5272 0.43459954 238.83984 0.43359375 z M 192.30273 153.45117 L 263.14258 188.85156 C 338.21059 226.3654 336.9454 225.66701 339.89062 231.16016 C 341.67985 234.49789 341.67743 243.37236 339.88672 246.70508 C 336.96478 252.14315 338.27928 251.41958 263.40234 288.85742 C 194.96951 323.07325 192.46012 324.27254 188.84375 324.50781 C 180.73876 325.03509 174.06436 320.54061 171.30664 312.69922 C 170.52745 310.48368 170.41992 301.58459 170.41992 238.88281 L 170.41992 167.58398 L 171.64648 164.30664 C 173.11703 160.37626 176.79884 156.46092 180.66992 154.71289 C 182.6571 153.81555 184.55705 153.486 187.83789 153.4707 L 192.30273 153.45117 z "
   style="fill:#a0a0a0;stroke:none;stroke-width:0.575743"
   id="path45" /></svg>
