<?xml version="1.0" encoding="UTF-8" standalone="no"?>
<svg
   xmlns:dc="http://purl.org/dc/elements/1.1/"
   xmlns:cc="http://creativecommons.org/ns#"
   xmlns:rdf="http://www.w3.org/1999/02/22-rdf-syntax-ns#"
   xmlns:svg="http://www.w3.org/2000/svg"
   xmlns="http://www.w3.org/2000/svg"
   xmlns:sodipodi="http://sodipodi.sourceforge.net/DTD/sodipodi-0.dtd"
   xmlns:inkscape="http://www.inkscape.org/namespaces/inkscape"
   inkscape:version="1.0 (4035a4fb49, 2020-05-01)"
   sodipodi:docname="tic-tac-toe.svg"
   version="1.1"
   width="512"
   viewBox="0 0 24 24"
   height="512"
   enable-background="new 0 0 24 24"
   id="bold">
  <metadata
     id="metadata27">
    <rdf:RDF>
      <cc:Work
         rdf:about="">
        <dc:format>image/svg+xml</dc:format>
        <dc:type
           rdf:resource="http://purl.org/dc/dcmitype/StillImage" />
        <dc:title></dc:title>
      </cc:Work>
    </rdf:RDF>
  </metadata>
  <defs
     id="defs25" />
  <sodipodi:namedview
     inkscape:current-layer="bold"
     inkscape:window-maximized="1"
     inkscape:window-y="1346"
     inkscape:window-x="1119"
     inkscape:cy="353.46506"
     inkscape:cx="256"
     inkscape:zoom="1.6210938"
     inkscape:pagecheckerboard="true"
     showgrid="false"
     id="namedview23"
     inkscape:window-height="1001"
     inkscape:window-width="1920"
     inkscape:pageshadow="2"
     inkscape:pageopacity="0"
     guidetolerance="10"
     gridtolerance="10"
     objecttolerance="10"
     borderopacity="1"
     bordercolor="#666666"
     pagecolor="#ffffff" />
  <path
     id="path2"
     d="m7.75 24c-.414 0-.75-.336-.75-.75v-22.5c0-.414.336-.75.75-.75s.75.336.75.75v22.5c0 .414-.336.75-.75.75z" />
  <path
     id="path4"
     d="m16.25 24c-.414 0-.75-.336-.75-.75v-22.5c0-.414.336-.75.75-.75s.75.336.75.75v22.5c0 .414-.336.75-.75.75z" />
  <path
     id="path6"
     d="m23.25 8.5h-22.5c-.414 0-.75-.336-.75-.75s.336-.75.75-.75h22.5c.414 0 .75.336.75.75s-.336.75-.75.75z" />
  <path
     id="path8"
     d="m23.25 17h-22.5c-.414 0-.75-.336-.75-.75s.336-.75.75-.75h22.5c.414 0 .75.336.75.75s-.336.75-.75.75z" />
  <path
     id="path10"
     d="m12 15c-1.654 0-3-1.346-3-3s1.346-3 3-3 3 1.346 3 3-1.346 3-3 3zm0-4.5c-.827 0-1.5.673-1.5 1.5s.673 1.5 1.5 1.5 1.5-.673 1.5-1.5-.673-1.5-1.5-1.5z" />
  <path
     id="path12"
     d="m3 6c-1.654 0-3-1.346-3-3s1.346-3 3-3 3 1.346 3 3-1.346 3-3 3zm0-4.5c-.827 0-1.5.673-1.5 1.5s.673 1.5 1.5 1.5 1.5-.673 1.5-1.5-.673-1.5-1.5-1.5z" />
  <path
     id="path14"
     d="m22.25 6c-.192 0-.384-.073-.53-.22l-3.5-3.5c-.293-.293-.293-.768 0-1.061s.768-.293 1.061 0l3.5 3.5c.293.293.293.768 0 1.061-.147.147-.339.22-.531.22z" />
  <path
     id="path16"
     d="m18.75 6c-.192 0-.384-.073-.53-.22-.293-.293-.293-.768 0-1.061l3.5-3.5c.293-.293.768-.293 1.061 0s.293.768 0 1.061l-3.5 3.5c-.147.147-.339.22-.531.22z" />
  <path
     id="path18"
     d="m22.25 23c-.192 0-.384-.073-.53-.22l-3.5-3.5c-.293-.293-.293-.768 0-1.061s.768-.293 1.061 0l3.5 3.5c.293.293.293.768 0 1.061-.147.147-.339.22-.531.22z" />
  <path
     id="path20"
     d="m18.75 23c-.192 0-.384-.073-.53-.22-.293-.293-.293-.768 0-1.061l3.5-3.5c.293-.293.768-.293 1.061 0s.293.768 0 1.061l-3.5 3.5c-.147.147-.339.22-.531.22z" />
  <path
     transform="scale(0.046875)"
     d="M 64.359375 0.58398438 C 59.964992 0.56493649 55.555757 0.8542258 52.433594 1.4570312 C 32.60116 5.2861403 15.870434 18.056902 7.0683594 36.085938 C 2.4206665 45.605671 1.1629403 50.73702 0.78125 61.751953 C 0.42120919 72.142117 1.2709269 77.674614 4.5859375 86.509766 C 12.349836 107.20206 31.410485 122.88721 53.556641 126.80859 C 60.074059 127.96262 72.219285 127.51604 78.832031 125.87891 C 105.91174 119.17473 125.77748 95.439085 127.50195 67.728516 C 129.4483 36.452794 107.35768 7.9617077 76.197266 1.5585938 C 73.133251 0.92897334 68.753758 0.60303226 64.359375 0.58398438 z M 165.32031 0.64648438 C 163.08775 0.64648438 160.8544 0.91934168 159.54883 1.4648438 C 156.87768 2.5809235 153.37649 5.6992575 151.61914 8.5253906 L 150.20703 10.794922 L 149.89844 80.193359 L 149.58984 149.58984 L 80.193359 149.89844 L 10.794922 150.20703 L 8.5253906 151.61914 C 5.6992573 153.37649 2.5809232 156.87768 1.4648438 159.54883 C 0.37383975 162.15997 0.37383975 168.48066 1.4648438 171.0918 C 2.5809235 173.76296 5.6992573 177.26414 8.5253906 179.02148 L 10.794922 180.43359 L 80.193359 180.74219 L 149.58984 181.05078 L 149.58984 256 L 149.58984 330.94922 L 80.193359 331.25781 L 10.794922 331.56641 L 8.5253906 332.97852 C 5.6992573 334.73586 2.5809232 338.23704 1.4648438 340.9082 C 0.36685511 343.53606 0.37658833 349.84555 1.4824219 352.49219 C 2.6747237 355.34577 6.3525613 359.27777 9.1132812 360.65039 C 11.298363 361.73679 14.829375 361.80839 80.501953 362.10156 L 149.58984 362.41016 L 149.89844 431.80664 L 150.20703 501.20508 L 151.61914 503.47461 C 153.32766 506.22222 156.83027 509.38359 159.41211 510.50781 C 161.90201 511.59195 168.52479 511.60773 171.0918 510.53516 C 173.76296 509.41908 177.26414 506.30075 179.02148 503.47461 L 180.43359 501.20508 L 180.74219 431.80664 L 181.05078 362.41016 L 256 362.41016 L 330.94922 362.41016 L 331.25781 431.80664 L 331.56641 501.20508 L 332.97852 503.47461 C 334.73586 506.30075 338.23704 509.41908 340.9082 510.53516 C 342.02463 511.00163 344.62223 511.38281 346.67969 511.38281 C 348.73714 511.38281 351.33472 511.00163 352.45117 510.53516 C 355.12232 509.41908 358.62351 506.30075 360.38086 503.47461 L 361.79297 501.20508 L 362.10156 431.80664 L 362.41016 362.41016 L 431.49805 362.10156 C 497.17063 361.80839 500.70164 361.73679 502.88672 360.65039 C 505.64744 359.27777 509.32528 355.34577 510.51758 352.49219 C 511.62339 349.84555 511.63315 343.53606 510.53516 340.9082 C 509.41908 338.23704 506.30075 334.73586 503.47461 332.97852 L 501.20508 331.56641 L 431.80664 331.25781 L 362.41016 330.94922 L 362.41016 256 L 362.41016 181.05078 L 431.80664 180.74219 L 501.20508 180.43359 L 503.47461 179.02148 C 506.30075 177.26414 509.41908 173.76296 510.53516 171.0918 C 511.62617 168.48066 511.62617 162.15997 510.53516 159.54883 C 509.41908 156.87768 506.30075 153.37649 503.47461 151.61914 L 501.20508 150.20703 L 431.80664 149.89844 L 362.41016 149.58984 L 362.10156 80.193359 L 361.79297 10.794922 L 360.38086 8.5253906 C 358.62351 5.6992575 355.12232 2.5809232 352.45117 1.4648438 C 349.84003 0.37383976 343.51934 0.37383976 340.9082 1.4648438 C 338.23704 2.5809235 334.73586 5.6992575 332.97852 8.5253906 L 331.56641 10.794922 L 331.25781 80.193359 L 330.94922 149.58984 L 256 149.58984 L 181.05078 149.58984 L 180.74219 80.193359 L 180.43359 10.794922 L 179.02148 8.5253906 C 177.26414 5.6992575 173.76296 2.5809232 171.0918 1.4648438 C 169.78623 0.91934168 167.55288 0.64648437 165.32031 0.64648438 z M 474.79492 21.886719 C 472.28002 21.849542 469.77909 22.234523 468.20312 23.054688 C 467.01565 23.67267 459.58937 30.602793 451.70117 38.455078 L 437.35938 52.732422 L 423.01758 38.455078 C 415.12938 30.602793 407.70312 23.67267 406.51562 23.054688 C 403.54755 21.510048 396.5134 21.515835 393.56055 23.064453 C 390.54957 24.643549 387.52099 27.62381 385.96875 30.535156 C 384.23373 33.789341 384.13311 40.64494 385.77344 43.796875 C 386.39142 44.984345 393.32154 52.410635 401.17383 60.298828 L 415.45117 74.640625 L 401.17383 88.982422 C 393.32154 96.870614 386.39142 104.2969 385.77344 105.48438 C 384.22911 108.45243 384.23264 115.4866 385.78125 118.43945 C 387.94537 122.56592 391.65292 125.71848 396.02539 127.15234 C 398.32894 127.90775 404.17416 127.35525 406.57031 126.15625 C 407.72798 125.57697 415.12938 118.67846 423.01758 110.82617 L 437.35938 96.548828 L 451.70117 110.82617 C 459.58936 118.67847 467.01566 125.60858 468.20312 126.22656 C 471.35507 127.8669 478.21066 127.76628 481.46484 126.03125 C 484.37619 124.47901 487.35645 121.45043 488.93555 118.43945 C 490.48447 115.4866 490.48996 108.45243 488.94531 105.48438 C 488.32733 104.29689 481.3972 96.870614 473.54492 88.982422 L 459.26758 74.640625 L 473.54492 60.298828 C 481.39721 52.410635 488.32733 44.984345 488.94531 43.796875 C 490.48965 40.828802 490.48416 33.796609 488.93555 30.84375 C 487.35645 27.832776 484.37619 24.804189 481.46484 23.251953 C 479.83775 22.38444 477.30982 21.923895 474.79492 21.886719 z M 63.546875 31.847656 C 81.519527 31.527702 96.230469 45.755717 96.230469 64.363281 C 96.230469 78.619267 85.950683 91.611147 71.740234 95.3125 C 67.555948 96.402341 60.739149 96.426431 56.443359 95.365234 C 32.381753 89.421266 23.641714 59.932431 40.576172 41.828125 C 45.657791 36.395464 52.278162 33.065974 59.912109 32.107422 C 61.135881 31.95376 62.348698 31.868987 63.546875 31.847656 z M 181.05078 181.05078 L 256 181.05078 L 330.94922 181.05078 L 330.94922 256 L 330.94922 330.94922 L 256.13672 331.10547 C 196.61096 331.23014 181.26168 331.10376 181.02734 330.48828 C 180.86533 330.06283 180.80528 296.2657 180.89258 255.38281 L 181.05078 181.05078 z M 256.5 192.70508 C 250.8879 192.6618 245.26583 193.06698 241.8125 193.9375 C 217.89036 199.96787 200.65711 216.93991 194.1582 240.87109 C 192.19952 248.08362 192.20651 263.94174 194.17188 271.18359 C 201.17454 296.98669 220.33088 314.26673 247.36328 319.16406 C 248.21147 319.3177 252.7931 319.36473 257.54297 319.26953 C 263.91373 319.14188 267.48337 318.75459 271.1543 317.79102 C 294.68563 311.61432 312.14648 293.89775 318.07227 270.1875 C 319.71079 263.6314 319.70564 248.33072 318.0625 241.8125 C 312.03193 217.8896 295.02995 200.62829 271.12891 194.16406 C 267.71437 193.24057 262.1121 192.74836 256.5 192.70508 z M 256 223.92383 C 274.09523 223.92383 288.07617 237.90477 288.07617 256 C 288.07617 270.77359 278.38625 283.46451 264.30273 287.13281 C 259.80944 288.30311 251.84517 288.28799 247.43359 287.10156 C 233.55022 283.36786 223.92383 270.63284 223.92383 256 C 223.92383 237.9303 237.9303 223.92383 256 223.92383 z M 474.79492 384.60547 C 472.28002 384.56829 469.77714 384.95327 468.20117 385.77344 C 467.0137 386.39142 459.58937 393.32154 451.70117 401.17383 L 437.35938 415.44922 L 423.01562 401.17383 C 415.12742 393.32154 407.7031 386.39142 406.51562 385.77344 C 403.54756 384.22911 396.5134 384.23264 393.56055 385.78125 C 390.54957 387.36035 387.52099 390.34257 385.96875 393.25391 C 384.23373 396.5081 384.13311 403.3637 385.77344 406.51562 C 386.39142 407.7031 393.32154 415.12938 401.17383 423.01758 L 415.44922 437.35938 L 401.17383 451.70117 C 393.32154 459.58937 386.39142 467.01565 385.77344 468.20312 C 384.22911 471.1712 384.23264 478.20339 385.78125 481.15625 C 387.95744 485.30573 391.77745 488.54182 396.02539 489.83398 L 396.02539 489.83203 C 398.77491 490.6684 402.10987 490.43741 405.41992 489.17969 C 408.20084 488.12302 410.67619 485.93261 423.00781 473.60938 L 437.35938 459.26758 L 451.70117 473.54492 C 459.58936 481.3972 467.0137 488.32733 468.20117 488.94531 C 471.35311 490.58564 478.21066 490.48307 481.46484 488.74805 C 484.37619 487.19581 487.35645 484.16722 488.93555 481.15625 C 490.48447 478.20339 490.48996 471.16925 488.94531 468.20117 C 488.32733 467.0137 481.3972 459.58937 473.54492 451.70117 L 459.26758 437.35938 L 473.54492 423.01562 C 481.39721 415.12743 488.32733 407.7031 488.94531 406.51562 C 490.48965 403.54755 490.48416 396.5134 488.93555 393.56055 C 487.35645 390.54957 484.37619 387.52099 481.46484 385.96875 C 479.83775 385.10124 477.30982 384.64264 474.79492 384.60547 z "
     style="fill:#a0a0a0;stroke:none;stroke-width:0.616867"
     id="path29" />
</svg>
