<?xml version="1.0" encoding="UTF-8" standalone="no"?>
<svg
   xmlns:dc="http://purl.org/dc/elements/1.1/"
   xmlns:cc="http://creativecommons.org/ns#"
   xmlns:rdf="http://www.w3.org/1999/02/22-rdf-syntax-ns#"
   xmlns:svg="http://www.w3.org/2000/svg"
   xmlns="http://www.w3.org/2000/svg"
   xmlns:sodipodi="http://sodipodi.sourceforge.net/DTD/sodipodi-0.dtd"
   xmlns:inkscape="http://www.inkscape.org/namespaces/inkscape"
   inkscape:version="1.0 (4035a4fb49, 2020-05-01)"
   sodipodi:docname="toDo.svg"
   version="1.1"
   width="512"
   viewBox="0 0 64 64"
   height="512"
   enable-background="new 0 0 64 64"
   id="Layer_1_1_">
  <metadata
     id="metadata27">
    <rdf:RDF>
      <cc:Work
         rdf:about="">
        <dc:format>image/svg+xml</dc:format>
        <dc:type
           rdf:resource="http://purl.org/dc/dcmitype/StillImage" />
        <dc:title></dc:title>
      </cc:Work>
    </rdf:RDF>
  </metadata>
  <defs
     id="defs25" />
  <sodipodi:namedview
     inkscape:current-layer="Layer_1_1_"
     inkscape:window-maximized="1"
     inkscape:window-y="1346"
     inkscape:window-x="1119"
     inkscape:cy="254.76627"
     inkscape:cx="256"
     inkscape:zoom="1.6210938"
     inkscape:pagecheckerboard="true"
     showgrid="false"
     id="namedview23"
     inkscape:window-height="1001"
     inkscape:window-width="1920"
     inkscape:pageshadow="2"
     inkscape:pageopacity="0"
     guidetolerance="10"
     gridtolerance="10"
     objecttolerance="10"
     borderopacity="1"
     bordercolor="#666666"
     pagecolor="#ffffff" />
  <path
     id="path2"
     d="m8 19h8c.55225 0 1-.44775 1-1v-3h-2v2h-6v-6h3v-2h-4c-.55225 0-1 .44775-1 1v8c0 .55225.44775 1 1 1z" />
  <path
     id="path4"
     d="m12 13.58594-1.29297-1.29297-1.41406 1.41406 2 2c.19531.19531.45117.29297.70703.29297s.51172-.09766.70703-.29297l6-6-1.41406-1.41406z" />
  <path
     id="path6"
     d="m15 30h-6v-6h3v-2h-4c-.55225 0-1 .44775-1 1v8c0 .55225.44775 1 1 1h8c.55225 0 1-.44775 1-1v-3h-2z" />
  <path
     id="path8"
     d="m12 26.58594-1.29297-1.29297-1.41406 1.41406 2 2c.19531.19531.45117.29297.70703.29297s.51172-.09766.70703-.29297l6-6-1.41406-1.41406z" />
  <path
     id="path10"
     d="m16 35h-8c-.55225 0-1 .44775-1 1v8c0 .55225.44775 1 1 1h8c.55225 0 1-.44775 1-1v-8c0-.55225-.44775-1-1-1zm-1 8h-6v-6h6z" />
  <path
     id="path12"
     d="m16 48h-8c-.55225 0-1 .44775-1 1v8c0 .55225.44775 1 1 1h8c.55225 0 1-.44775 1-1v-8c0-.55225-.44775-1-1-1zm-1 8h-6v-6h6z" />
  <path
     id="path14"
     d="m57.70703 5.29297c-.39062-.39062-1.02344-.39062-1.41406 0l-6.29297 6.29297-9.29297-9.29297c-.1875-.1875-.44189-.29297-.70703-.29297h-37c-.55225 0-1 .44775-1 1v58c0 .55225.44775 1 1 1h47c.55225 0 1-.44775 1-1v-39.58594l10.70703-10.70703c.39062-.39062.39062-1.02344 0-1.41406zm-8.70703 54.70703h-45v-56h35.58594l8 8h-6.58594v-5h-2v6c0 .55225.44775 1 1 1h7.58594l-23.29297 23.29297c-.10986.10986-.19238.24365-.2417.39062l-2 6c-.11963.35938-.02637.75586.2417 1.02344.19043.19092.44629.29297.70703.29297.10596 0 .2124-.0166.31641-.05127l6-2c.14697-.04932.28076-.13184.39062-.2417l19.29297-19.29297zm-23.56299-20.14893 1.71191 1.71191-2.56787.85596zm3.56299.73487-2.58594-2.58594 30.58594-30.58594 2.58594 2.58594z" />
  <path
     id="path16"
     d="m45 56h2v2h-2z" />
  <path
     id="path18"
     d="m41 56h2v2h-2z" />
  <path
     id="path20"
     d="m37 56h2v2h-2z" />
  <path
     transform="scale(0.125)"
     d="M 226.82617 16.125 C 209.02798 16.127211 189.57828 16.138974 169.30273 16.164062 C 29.637903 16.336882 21.756441 16.404948 20.183594 17.435547 C 19.270256 18.034008 18.034008 19.27024 17.435547 20.183594 C 16.401661 21.761484 16.338095 33.404808 16.167969 253.81445 C 16.069493 381.39757 16.155532 486.96202 16.359375 488.40234 C 16.807565 491.56917 19.131512 494.51325 21.794922 495.28711 C 22.968932 495.62822 99.214037 495.81437 212.84766 495.75391 C 393.97563 495.65754 402.0155 495.60519 403.64258 494.53906 C 404.57685 493.92689 405.88189 492.53929 406.54297 491.45508 C 407.72616 489.51461 407.74605 486.99478 407.74805 330.33398 L 407.75 171.18359 L 450.96094 127.96875 C 496.77062 82.15561 496.52005 82.439455 495.27148 78.085938 C 494.58541 75.693753 461.42329 42.227062 458.46484 40.941406 C 454.12767 39.056595 453.9958 39.16346 425.95312 67.222656 L 400.05273 93.138672 L 361.79883 54.945312 L 323.54688 16.753906 L 320.1543 16.367188 C 318.75477 16.207923 280.22074 16.118367 226.82617 16.125 z M 31.460938 31.460938 L 174.11328 31.460938 L 316.76562 31.460938 L 348.6875 63.384766 C 366.24387 80.94357 380.60742 95.518241 380.60742 95.771484 C 380.60742 96.024733 368.67094 96.230469 354.08203 96.230469 L 327.55664 96.230469 L 327.55664 76.183594 L 327.55664 56.134766 L 319.8457 56.134766 L 312.13477 56.134766 L 312.13477 80.5625 C 312.13477 107.60367 312.20331 108.1168 316.0957 110.49023 C 317.88954 111.58413 319.77039 111.64839 349.76172 111.65039 L 381.52734 111.65234 L 287.37109 205.87891 L 193.21484 300.10547 L 184.74805 325.61133 C 175.79994 352.56687 175.52421 353.85231 178.0918 356.68945 C 179.55668 358.30812 182.19435 359.63281 183.94922 359.63281 C 184.72939 359.63281 196.74975 355.85598 210.66016 351.23828 L 235.95117 342.8418 L 314.14062 264.72461 L 392.32812 186.60938 L 392.32812 333.57422 L 392.32812 480.53906 L 211.89453 480.53906 L 31.460938 480.53906 L 31.460938 256 L 31.460938 31.460938 z M 455.86328 58.914062 L 466.50391 69.554688 L 477.14453 80.195312 L 354.69727 202.64258 C 287.35186 269.98863 232.10926 325.08984 231.93555 325.08984 C 231.76186 325.08984 226.90658 320.36914 221.14453 314.59961 L 210.66797 304.10938 L 333.26562 181.51172 L 455.86328 58.914062 z M 138.17773 66.9375 L 117.04688 88.0625 L 95.914062 109.1875 L 90.830078 104.10156 L 85.744141 99.015625 L 80.353516 104.40625 L 74.962891 109.79883 L 82.974609 117.88281 C 87.38155 122.32925 91.82006 126.34366 92.837891 126.80469 C 95.250383 127.89694 97.136683 127.89833 99.191406 126.80664 C 100.10757 126.31987 111.68233 115.07778 124.91211 101.82422 L 148.9668 77.726562 L 143.57227 72.332031 L 138.17773 66.9375 z M 79.050781 72.173828 C 62.856838 72.173828 62.439816 72.20527 60.390625 73.574219 C 55.973887 76.524791 56.095936 75.35286 56.279297 112.88672 C 56.461852 150.25557 56.269979 148.59483 60.636719 150.74805 C 62.360962 151.59826 66.83808 151.72296 95.921875 151.73438 C 126.41668 151.74634 129.41607 151.65535 131.39258 150.66797 C 135.27846 148.72676 135.70798 146.94589 135.70898 132.78125 L 135.71094 120.28906 L 128 120.28906 L 120.28906 120.28906 L 120.28906 128.30859 L 120.28906 136.32812 L 95.923828 136.32812 L 71.556641 136.32812 L 71.556641 111.96094 L 71.556641 87.595703 L 83.585938 87.595703 L 95.615234 87.595703 L 95.615234 79.884766 L 95.615234 72.173828 L 79.050781 72.173828 z M 203.26562 318.29297 L 210.32617 325.37109 C 214.20862 329.26459 217.26018 332.55958 217.10742 332.69336 C 216.95467 332.82714 212.16609 334.48603 206.4668 336.37891 C 198.13389 339.14649 196.16849 339.61563 196.43555 338.77734 C 196.6182 338.20398 198.23064 333.36048 200.01758 328.01367 L 203.26562 318.29297 z "
     style="fill:#a0a0a0;stroke:none;stroke-width:0.616867"
     id="path29" />
  <path
     transform="scale(0.125)"
     d="M 138.4707 170.88086 L 117.50977 191.84961 C 105.98051 203.38262 96.273514 212.81836 95.939453 212.81836 C 95.605391 212.81836 93.099687 210.59919 90.371094 207.88477 L 85.410156 202.94922 L 80.191406 208.19531 L 74.970703 213.44141 L 83.595703 222.0918 C 88.963677 227.47577 92.920526 230.9468 94.072266 231.28125 C 96.064111 231.85967 97.501268 231.63293 99.931641 230.36133 C 100.77983 229.91755 112.23309 218.77701 125.38281 205.60352 L 149.29102 181.65234 L 143.88086 176.26562 L 138.4707 170.88086 z M 95.615234 176.42383 L 78.804688 176.42578 C 63.032657 176.42795 61.869022 176.50574 59.953125 177.67383 C 56.110864 180.0164 56.134766 179.77697 56.134766 215.9043 C 56.134766 250.70813 56.169486 251.14111 59.109375 253.75977 C 59.82086 254.39351 61.315095 255.12804 62.431641 255.39258 C 65.300556 256.0723 126.25594 256.09027 129.17969 255.41211 C 130.50695 255.10426 132.45036 253.99423 133.49805 252.94727 L 135.40234 251.04492 L 135.58984 237.79297 L 135.7793 224.54102 L 128.0332 224.54102 L 120.28906 224.54102 L 120.28906 232.55859 L 120.28906 240.57812 L 95.923828 240.57812 L 71.556641 240.57812 L 71.556641 216.21289 L 71.556641 191.8457 L 83.585938 191.8457 L 95.615234 191.8457 L 95.615234 184.13477 L 95.615234 176.42383 z M 95.814453 280.36719 C 62.360212 280.36719 61.746973 280.38881 60.035156 281.64453 C 56.055377 284.56394 56.137819 283.76448 56.136719 320.01953 C 56.135661 356.29455 56.109444 356.04134 59.953125 358.38477 C 61.935842 359.5936 62.980129 359.62891 95.923828 359.62891 C 128.48797 359.62891 129.93067 359.58154 131.82617 358.42578 C 135.81208 355.99543 135.71094 356.98487 135.71094 320.12305 C 135.71094 283.25657 135.78085 283.95253 131.8457 281.57227 C 129.92974 280.41334 128.50516 280.36719 95.814453 280.36719 z M 71.556641 295.48047 L 95.923828 295.48047 L 120.28906 295.48047 L 120.28906 319.8457 L 120.28906 344.21289 L 95.923828 344.21289 L 71.556641 344.21289 L 71.556641 319.8457 L 71.556641 295.48047 z M 96.222656 384.31055 C 64.828917 384.3084 62.45229 384.38329 60.490234 385.43555 C 59.334272 386.0555 57.877805 387.51257 57.251953 388.67383 C 56.179549 390.66365 56.123843 392.72672 56.279297 424.51367 C 56.440733 457.52376 56.470339 458.28028 57.720703 459.98438 C 58.423375 460.942 59.949928 462.2152 61.113281 462.81445 C 63.071129 463.82295 65.729137 463.89225 96.847656 463.74023 C 128.10557 463.58753 130.58351 463.49822 132.11133 462.46094 C 135.74076 459.99683 135.71094 460.30705 135.71094 424.13672 C 135.71094 387.62601 135.73817 387.90318 131.89258 385.55859 C 129.91058 384.35015 128.86452 384.31255 96.222656 384.31055 z M 71.556641 399.73047 L 95.923828 399.73047 L 120.28906 399.73047 L 120.28906 424.0957 L 120.28906 448.46289 L 95.923828 448.46289 L 71.556641 448.46289 L 71.556641 424.0957 L 71.556641 399.73047 z M 296.0957 448.46289 L 296.0957 456.17383 L 296.0957 463.88477 L 303.80664 463.88477 L 311.51758 463.88477 L 311.51758 456.17383 L 311.51758 448.46289 L 303.80664 448.46289 L 296.0957 448.46289 z M 328.17383 448.46289 L 328.17383 456.17383 L 328.17383 463.88477 L 335.88477 463.88477 L 343.5957 463.88477 L 343.5957 456.17383 L 343.5957 448.46289 L 335.88477 448.46289 L 328.17383 448.46289 z M 360.25 448.46289 L 360.25 456.17383 L 360.25 463.88477 L 367.96094 463.88477 L 375.67188 463.88477 L 375.67188 456.17383 L 375.67188 448.46289 L 367.96094 448.46289 L 360.25 448.46289 z "
     style="fill:#a0a0a0;stroke:none;stroke-width:0.616867"
     id="path41" />
</svg>
